<svg width="36" height="36" viewBox="0 0 36 36" fill="none" xmlns="http://www.w3.org/2000/svg">
<g clip-path="url(#clip0_4_34)">
<path d="M35.9648 10.5841C35.8805 8.67128 35.5712 7.35623 35.128 6.21673C34.6709 5.00717 33.9677 3.92426 33.0463 3.02403C32.146 2.10979 31.056 1.39938 29.8604 0.949404C28.7143 0.506294 27.4062 0.196968 25.4934 0.112632C23.5663 0.0211528 22.9545 0 18.0668 0C13.1791 0 12.5673 0.0211528 10.6474 0.105489C8.73457 0.189826 7.41952 0.499426 6.28029 0.942262C5.07046 1.39938 3.98755 2.10264 3.08732 3.02403C2.17308 3.92426 1.46295 5.01432 1.0127 6.20986C0.569587 7.35623 0.260262 8.66414 0.175925 10.577C0.0844462 12.5041 0.0632935 13.1158 0.0632935 18.0035C0.0632935 22.8912 0.0844462 23.503 0.168783 25.4229C0.253119 27.3358 0.562719 28.6508 1.00583 29.7903C1.46295 30.9999 2.17308 32.0828 3.08732 32.983C3.98755 33.8972 5.07761 34.6076 6.27315 35.0576C7.41952 35.5007 8.72743 35.8101 10.6405 35.8944C12.5602 35.979 13.1723 35.9999 18.0599 35.9999C22.9476 35.9999 23.5594 35.979 25.4793 35.8944C27.3922 35.8101 28.7072 35.5007 29.8464 35.0576C32.2658 34.1222 34.1786 32.2094 35.114 29.7903C35.5569 28.6439 35.8665 27.3358 35.9508 25.4229C36.0351 23.503 36.0563 22.8912 36.0563 18.0035C36.0563 13.1158 36.0492 12.5041 35.9648 10.5841ZM32.7229 25.2823C32.6455 27.0404 32.3502 27.9898 32.104 28.6228C31.4991 30.1911 30.2544 31.4358 28.6861 32.0407C28.0531 32.2869 27.0968 32.5822 25.3456 32.6594C23.4468 32.744 22.8773 32.7649 18.0739 32.7649C13.2706 32.7649 12.694 32.744 10.802 32.6594C9.04389 32.5822 8.09449 32.2869 7.46155 32.0407C6.6811 31.7523 5.97069 31.2952 5.39407 30.6974C4.7963 30.1136 4.33918 29.4104 4.05073 28.6299C3.80459 27.997 3.50928 27.0404 3.43208 25.2894C3.34747 23.3906 3.32659 22.8209 3.32659 18.0175C3.32659 13.2142 3.34747 12.6376 3.43208 10.7459C3.50928 8.98775 3.80459 8.03834 4.05073 7.40541C4.33918 6.62468 4.7963 5.91455 5.40122 5.33765C5.9847 4.73988 6.68797 4.28276 7.4687 3.99458C8.10163 3.74844 9.05818 3.45313 10.8092 3.37566C12.708 3.29132 13.2778 3.27017 18.0808 3.27017C22.8913 3.27017 23.4608 3.29132 25.3527 3.37566C27.1109 3.45313 28.0603 3.74844 28.6932 3.99458C29.4737 4.28276 30.1841 4.73988 30.7607 5.33765C31.3584 5.92141 31.8156 6.62468 32.104 7.40541C32.3502 8.03834 32.6455 8.99462 32.7229 10.7459C32.8073 12.6447 32.8284 13.2142 32.8284 18.0175C32.8284 22.8209 32.8073 23.3835 32.7229 25.2823Z" fill="white"/>
<path d="M18.0668 8.75574C12.9613 8.75574 8.81891 12.8978 8.81891 18.0036C8.81891 23.1094 12.9613 27.2515 18.0668 27.2515C23.1726 27.2515 27.3147 23.1094 27.3147 18.0036C27.3147 12.8978 23.1726 8.75574 18.0668 8.75574ZM18.0668 24.0025C14.7546 24.0025 12.0679 21.3161 12.0679 18.0036C12.0679 14.6912 14.7546 12.0048 18.0668 12.0048C21.3793 12.0048 24.0657 14.6912 24.0657 18.0036C24.0657 21.3161 21.3793 24.0025 18.0668 24.0025Z" fill="white"/>
<path d="M29.84 8.39004C29.84 9.58229 28.8732 10.549 27.6807 10.549C26.4885 10.549 25.5218 9.58229 25.5218 8.39004C25.5218 7.19752 26.4885 6.23108 27.6807 6.23108C28.8732 6.23108 29.84 7.19752 29.84 8.39004Z" fill="white"/>
</g>
<defs>
<clipPath id="clip0_4_34">
<rect width="36" height="36" fill="white"/>
</clipPath>
</defs>
</svg>
