<svg width="36" height="36" viewBox="0 0 36 36" fill="none" xmlns="http://www.w3.org/2000/svg">
<path d="M18.0001 0C10.811 0 4.96222 5.84873 4.96222 13.0378C4.96222 21.9596 16.6298 35.0573 17.1266 35.6105C17.5932 36.1302 18.4078 36.1293 18.8735 35.6105C19.3703 35.0573 31.0379 21.9596 31.0379 13.0378C31.0377 5.84873 25.1891 0 18.0001 0ZM18.0001 19.5974C14.383 19.5974 11.4405 16.6548 11.4405 13.0378C11.4405 9.42075 14.3831 6.47817 18.0001 6.47817C21.617 6.47817 24.5596 9.42082 24.5596 13.0378C24.5596 16.6549 21.617 19.5974 18.0001 19.5974Z" fill="white"/>
</svg>
