<svg width="304" height="304" viewBox="0 0 304 304" fill="none" xmlns="http://www.w3.org/2000/svg">
<g clip-path="url(#clip0_2_53)">
<path d="M152 304C235.947 304 304 235.947 304 152C304 68.0527 235.947 0 152 0C68.0527 0 0 68.0527 0 152C0 235.947 68.0527 304 152 304Z" fill="#D2483D"/>
<path d="M253.333 152L91.2195 233.088L160.962 303.73C225.603 299.97 279.394 255.824 297.48 196.147L253.333 152Z" fill="#9E231D"/>
<path d="M148.833 177.419C169.237 177.419 185.778 160.879 185.778 140.475C185.778 120.071 169.237 103.53 148.833 103.53C128.429 103.53 111.888 120.071 111.888 140.475C111.888 160.879 128.429 177.419 148.833 177.419Z" fill="#E39D46"/>
<path d="M148.833 181.513C126.205 181.513 107.794 163.103 107.794 140.474C107.794 117.845 126.204 99.4346 148.833 99.4346C171.462 99.4346 189.872 117.845 189.872 140.474C189.872 163.103 171.462 181.513 148.833 181.513ZM148.833 107.624C130.72 107.624 115.983 122.361 115.983 140.475C115.983 158.589 130.719 173.325 148.833 173.325C166.947 173.325 181.684 158.589 181.684 140.475C181.684 122.361 166.947 107.624 148.833 107.624Z" fill="#F7CA68"/>
<path d="M148.833 158.947C159.035 158.947 167.305 150.677 167.305 140.475C167.305 130.273 159.035 122.002 148.833 122.002C138.631 122.002 130.361 130.273 130.361 140.475C130.361 150.677 138.631 158.947 148.833 158.947Z" fill="#E39D46"/>
<path d="M148.833 163.04C136.391 163.04 126.266 152.916 126.266 140.474C126.266 128.031 136.391 117.907 148.833 117.907C161.276 117.907 171.4 128.031 171.4 140.474C171.4 152.916 161.277 163.04 148.833 163.04ZM148.833 126.096C140.906 126.096 134.455 132.546 134.455 140.474C134.455 148.401 140.906 154.852 148.833 154.852C156.761 154.852 163.211 148.401 163.211 140.474C163.211 132.546 156.761 126.096 148.833 126.096Z" fill="#F7CA68"/>
<path d="M148.833 103.53C148.751 103.53 148.67 103.536 148.588 103.536V177.412C148.67 177.413 148.751 177.418 148.833 177.418C169.237 177.418 185.778 160.877 185.778 140.474C185.778 120.071 169.237 103.53 148.833 103.53Z" fill="#C46116"/>
<path d="M148.833 99.4356C148.751 99.4356 148.67 99.4418 148.588 99.4418V107.63C148.67 107.629 148.751 107.624 148.833 107.624C166.946 107.624 181.683 122.361 181.683 140.475C181.683 158.589 166.947 173.325 148.833 173.325C148.751 173.325 148.67 173.32 148.588 173.319V181.507C148.67 181.507 148.751 181.514 148.833 181.514C171.461 181.514 189.872 163.104 189.872 140.475C189.872 117.846 171.462 99.4356 148.833 99.4356Z" fill="#D89221"/>
<path d="M148.833 122.002C148.75 122.002 148.67 122.014 148.588 122.015V158.935C148.671 158.936 148.75 158.947 148.833 158.947C159.035 158.947 167.305 150.677 167.305 140.475C167.305 130.273 159.035 122.002 148.833 122.002Z" fill="#C46116"/>
<path d="M148.833 117.907C148.751 117.907 148.67 117.912 148.588 117.913V126.108C148.67 126.107 148.75 126.096 148.833 126.096C156.761 126.096 163.211 132.546 163.211 140.474C163.211 148.401 156.761 154.852 148.833 154.852C148.75 154.852 148.67 154.84 148.588 154.839V163.034C148.67 163.035 148.751 163.04 148.833 163.04C161.276 163.04 171.4 152.916 171.4 140.474C171.4 128.031 161.277 117.907 148.833 117.907Z" fill="#D89221"/>
<path d="M101.333 185.778C119.988 185.778 135.111 170.655 135.111 152C135.111 133.345 119.988 118.222 101.333 118.222C82.6784 118.222 67.5555 133.345 67.5555 152C67.5555 170.655 82.6784 185.778 101.333 185.778Z" fill="#E39D46"/>
<path d="M101.333 189.872C80.4505 189.872 63.4613 172.883 63.4613 152C63.4613 131.117 80.4505 114.128 101.333 114.128C122.216 114.128 139.205 131.117 139.205 152C139.205 172.883 122.216 189.872 101.333 189.872ZM101.333 122.316C84.9665 122.316 71.6498 135.633 71.6498 152C71.6498 168.367 84.9665 181.684 101.333 181.684C117.7 181.684 131.017 168.367 131.017 152C131.017 135.633 117.7 122.316 101.333 122.316Z" fill="#F7CA68"/>
<path d="M101.333 168.889C110.661 168.889 118.222 161.327 118.222 152C118.222 142.673 110.661 135.111 101.333 135.111C92.0058 135.111 84.4444 142.673 84.4444 152C84.4444 161.327 92.0058 168.889 101.333 168.889Z" fill="#E39D46"/>
<path d="M101.333 172.983C89.7629 172.983 80.3502 163.57 80.3502 152C80.3502 140.43 89.7629 131.017 101.333 131.017C112.904 131.017 122.316 140.43 122.316 152C122.316 163.57 112.904 172.983 101.333 172.983ZM101.333 139.205C94.2779 139.205 88.5387 144.945 88.5387 152C88.5387 159.055 94.2779 164.795 101.333 164.795C108.389 164.795 114.128 159.055 114.128 152C114.128 144.945 108.389 139.205 101.333 139.205Z" fill="#F7CA68"/>
<path d="M194.222 202.667C217.541 202.667 236.444 183.763 236.444 160.444C236.444 137.126 217.541 118.222 194.222 118.222C170.904 118.222 152 137.126 152 160.444C152 183.763 170.904 202.667 194.222 202.667Z" fill="#E39D46"/>
<path d="M194.222 206.761C168.683 206.761 147.906 185.984 147.906 160.444C147.906 134.905 168.683 114.128 194.222 114.128C219.761 114.128 240.539 134.905 240.539 160.444C240.539 185.984 219.761 206.761 194.222 206.761ZM194.222 122.316C173.198 122.316 156.094 139.42 156.094 160.444C156.094 181.469 173.198 198.572 194.222 198.572C215.246 198.572 232.35 181.469 232.35 160.444C232.35 139.42 215.246 122.316 194.222 122.316Z" fill="#F7CA68"/>
<path d="M194.222 186.034C208.355 186.034 219.811 174.577 219.811 160.444C219.811 146.312 208.355 134.855 194.222 134.855C180.09 134.855 168.633 146.312 168.633 160.444C168.633 174.577 180.09 186.034 194.222 186.034Z" fill="#E39D46"/>
<path d="M194.222 190.128C177.855 190.128 164.539 176.811 164.539 160.444C164.539 144.078 177.855 130.761 194.222 130.761C210.589 130.761 223.906 144.078 223.906 160.444C223.906 176.811 210.589 190.128 194.222 190.128ZM194.222 138.95C182.37 138.95 172.727 148.593 172.727 160.444C172.727 172.296 182.37 181.939 194.222 181.939C206.074 181.939 215.717 172.296 215.717 160.444C215.717 148.593 206.074 138.95 194.222 138.95Z" fill="#F7CA68"/>
<path d="M194.222 168.889C198.886 168.889 202.667 165.108 202.667 160.444C202.667 155.781 198.886 152 194.222 152C189.558 152 185.778 155.781 185.778 160.444C185.778 165.108 189.558 168.889 194.222 168.889Z" fill="#E67E22"/>
<path d="M194.222 172.983C187.308 172.983 181.684 167.359 181.684 160.444C181.684 153.53 187.308 147.906 194.222 147.906C201.136 147.906 206.761 153.53 206.761 160.444C206.761 167.359 201.136 172.983 194.222 172.983ZM194.222 156.094C191.823 156.094 189.872 158.045 189.872 160.444C189.872 162.844 191.823 164.795 194.222 164.795C196.621 164.795 198.572 162.844 198.572 160.444C198.572 158.045 196.621 156.094 194.222 156.094Z" fill="#F7CA68"/>
<path d="M253.333 152C253.333 207.965 207.965 253.333 152 253.333C96.0353 253.333 50.6667 207.965 50.6667 152H253.333Z" fill="#F0DEB4"/>
<path d="M148.588 152V253.27C149.722 253.308 150.858 253.333 152 253.333C207.965 253.333 253.333 207.965 253.333 152H148.588Z" fill="#D5C295"/>
<path d="M202.667 122.316C200.406 122.316 198.572 120.483 198.572 118.222V50.6667C198.572 48.4056 200.406 46.5724 202.667 46.5724C204.928 46.5724 206.761 48.4056 206.761 50.6667V118.222C206.761 120.483 204.928 122.316 202.667 122.316Z" fill="#F7CA68"/>
<path d="M185.778 139.205C183.517 139.205 181.684 137.372 181.684 135.111V67.5555C181.684 65.2945 183.517 63.4613 185.778 63.4613C188.039 63.4613 189.872 65.2945 189.872 67.5555V135.111C189.872 137.372 188.039 139.205 185.778 139.205Z" fill="#F7CA68"/>
<path d="M202.667 72.6734H67.5556C64.7285 72.6734 62.4377 70.3827 62.4377 67.5556C62.4377 64.7285 64.7285 62.4377 67.5556 62.4377H202.667C205.494 62.4377 207.785 64.7285 207.785 67.5556C207.785 70.3827 205.494 72.6734 202.667 72.6734Z" fill="#D5C295"/>
<path d="M219.556 55.7845H84.4444C81.6173 55.7845 79.3266 53.4938 79.3266 50.6667C79.3266 47.8396 81.6173 45.5488 84.4444 45.5488H219.556C222.383 45.5488 224.673 47.8396 224.673 50.6667C224.673 53.4938 222.383 55.7845 219.556 55.7845Z" fill="#D5C295"/>
<path d="M202.667 62.4377H151.659V72.6734H202.667C205.494 72.6734 207.785 70.3827 207.785 67.5556C207.785 64.7285 205.494 62.4377 202.667 62.4377Z" fill="#BCA77E"/>
<path d="M219.556 45.5488H151.659V55.7845H219.556C222.383 55.7845 224.673 53.4938 224.673 50.6667C224.673 47.8396 222.383 45.5488 219.556 45.5488Z" fill="#BCA77E"/>
</g>
<defs>
<clipPath id="clip0_2_53">
<rect width="304" height="304" fill="white"/>
</clipPath>
</defs>
</svg>
